<svg id="Layer_1" data-name="Layer 1" xmlns="http://www.w3.org/2000/svg" viewBox="0 0 512 512"><defs><style>.cls-1{fill:#ff5f6e;}.cls-2{fill:#141f38;}.cls-3{fill:#3eb38a;}.cls-4{fill:#d1e1e8;}.cls-5{fill:#f9c882;}</style></defs><title>customer-service-filled</title><path class="cls-1" d="M269.13,505.44H242.87a26.26,26.26,0,0,1-26.26-26.26h0a26.26,26.26,0,0,1,26.26-26.26h26.26a26.26,26.26,0,0,1,26.26,26.26h0A26.26,26.26,0,0,1,269.13,505.44Z"/><path class="cls-2" d="M269.13,512H242.87a32.82,32.82,0,0,1,0-65.64h26.26a32.82,32.82,0,1,1,0,65.64Zm-26.26-52.51a19.69,19.69,0,0,0,0,39.38h26.26a19.69,19.69,0,1,0,0-39.38Z"/><path class="cls-2" d="M426.67,183.79a6.56,6.56,0,0,1-6.56-6.56c0-90.49-73.62-164.1-164.1-164.1S91.9,86.74,91.9,177.23a6.56,6.56,0,1,1-13.13,0C78.77,79.51,158.28,0,256,0S433.23,79.51,433.23,177.23A6.56,6.56,0,0,1,426.67,183.79Z"/><rect class="cls-3" x="45.95" y="177.23" width="78.77" height="170.67" rx="32.82" ry="32.82"/><path class="cls-2" d="M91.9,354.46H78.77a39.43,39.43,0,0,1-39.38-39.38v-105a39.43,39.43,0,0,1,39.38-39.38H91.9a39.43,39.43,0,0,1,39.38,39.38v105A39.43,39.43,0,0,1,91.9,354.46ZM78.77,183.79a26.28,26.28,0,0,0-26.26,26.26v105a26.28,26.28,0,0,0,26.26,26.26H91.9a26.28,26.28,0,0,0,26.26-26.26v-105A26.28,26.28,0,0,0,91.9,183.79Z"/><path class="cls-4" d="M45.95,295.38H39.38A32.82,32.82,0,0,1,6.56,262.56h0a32.82,32.82,0,0,1,32.82-32.82h6.56Z"/><path class="cls-2" d="M52.51,301.95H39.38a39.38,39.38,0,1,1,0-78.77H52.51ZM39.38,236.31a26.26,26.26,0,1,0,0,52.51Z"/><rect class="cls-3" x="387.28" y="177.23" width="78.77" height="170.67" rx="32.82" ry="32.82" transform="translate(853.33 525.13) rotate(180)"/><path class="cls-2" d="M433.23,354.46H420.1a39.43,39.43,0,0,1-39.38-39.38v-105a39.43,39.43,0,0,1,39.38-39.38h13.13a39.43,39.43,0,0,1,39.38,39.38v105A39.43,39.43,0,0,1,433.23,354.46ZM420.1,183.79a26.28,26.28,0,0,0-26.26,26.26v105a26.28,26.28,0,0,0,26.26,26.26h13.13a26.28,26.28,0,0,0,26.26-26.26v-105a26.28,26.28,0,0,0-26.26-26.26Z"/><path class="cls-4" d="M466.05,295.38h6.56a32.82,32.82,0,0,0,32.82-32.82h0a32.82,32.82,0,0,0-32.82-32.82h-6.56Z"/><path class="cls-2" d="M472.62,301.95H459.49V223.18h13.13a39.38,39.38,0,1,1,0,78.77Zm0-65.64v52.51a26.26,26.26,0,1,0,0-52.51Z"/><path class="cls-2" d="M216.62,485.74c-76,0-137.85-61.84-137.85-137.85H91.9A124.86,124.86,0,0,0,216.62,472.62Z"/><path class="cls-5" d="M124.72,229.74A131.28,131.28,0,0,1,256,98.46h0A131.28,131.28,0,0,1,387.28,229.74H334.77a39.38,39.38,0,0,1-39.38-39.38A39.38,39.38,0,0,1,256,229.74Z"/><path class="cls-2" d="M387.28,236.31H334.77A46,46,0,0,1,295.38,214,46,46,0,0,1,256,236.31H124.72a6.56,6.56,0,0,1-6.56-6.56C118.15,153.73,180,91.9,256,91.9s137.85,61.84,137.85,137.85A6.56,6.56,0,0,1,387.28,236.31Zm-85.33-45.95a32.86,32.86,0,0,0,32.82,32.82h45.78a124.72,124.72,0,0,0-249.09,0H256a32.86,32.86,0,0,0,32.82-32.82,6.56,6.56,0,1,1,13.13,0Z"/><path class="cls-4" d="M295.38,190.36A39.38,39.38,0,0,1,256,229.74H124.72v52.51a131.28,131.28,0,0,0,262.56,0V229.74H334.77A39.38,39.38,0,0,1,295.38,190.36Z"/><path class="cls-2" d="M256,420.1c-76,0-137.85-61.84-137.85-137.85V223.18H256a32.86,32.86,0,0,0,32.82-32.82h13.13a32.86,32.86,0,0,0,32.82,32.82h59.08v59.08C393.85,358.27,332,420.1,256,420.1ZM131.28,236.31v45.95a124.72,124.72,0,0,0,249.44,0V236.31H334.77A46,46,0,0,1,295.38,214,46,46,0,0,1,256,236.31Z"/><path class="cls-2" d="M256,354.46a45.67,45.67,0,0,1-34.19-15.34,6.56,6.56,0,1,1,9.82-8.71,32.65,32.65,0,0,0,48.73,0,6.56,6.56,0,1,1,9.82,8.71A45.67,45.67,0,0,1,256,354.46Z"/><circle class="cls-2" cx="216.62" cy="282.26" r="13.13"/><circle class="cls-2" cx="295.38" cy="282.26" r="13.13"/></svg>